<svg xmlns="http://www.w3.org/2000/svg" width="89.746" height="89.746" viewBox="0 0 89.746 89.746">
  <g id="WhatsApp-Logo-Icon" transform="translate(-293.101 5.899)">
    <circle id="Elipse_42" data-name="Elipse 42" cx="44.873" cy="44.873" r="44.873" transform="translate(293.101 -5.899)" fill="#221f1c"/>
    <path id="Trazado_1032" data-name="Trazado 1032" d="M461.4,141.672c-.787-.394-4.658-2.3-5.379-2.561s-1.246-.394-1.771.394-2.034,2.561-2.493,3.086-.918.591-1.706.2a21.5,21.5,0,0,1-6.331-3.906,23.718,23.718,0,0,1-4.38-5.452c-.459-.788-.049-1.214.345-1.606.354-.352.787-.919,1.181-1.379a5.368,5.368,0,0,0,.787-1.313,1.449,1.449,0,0,0-.066-1.379c-.2-.394-1.771-4.267-2.427-5.843-.639-1.535-1.288-1.327-1.771-1.351-.459-.023-.984-.028-1.509-.028a2.893,2.893,0,0,0-2.1.985,8.826,8.826,0,0,0-2.755,6.566c0,3.874,2.821,7.616,3.214,8.141s5.551,8.474,13.448,11.883a45.3,45.3,0,0,0,4.488,1.658,10.8,10.8,0,0,0,4.959.312c1.512-.226,4.658-1.9,5.314-3.742a6.578,6.578,0,0,0,.459-3.742c-.2-.328-.721-.525-1.509-.919m-14.364,19.606h-.01a26.153,26.153,0,0,1-13.329-3.649l-.956-.568-9.911,2.6L425.47,150l-.623-.99a26.189,26.189,0,1,1,22.184,12.268m22.287-48.46a31.51,31.51,0,0,0-49.589,38l-4.47,16.322,16.7-4.38a31.493,31.493,0,0,0,15.056,3.834h.013a31.509,31.509,0,0,0,22.287-53.779" transform="translate(-108.1 -96.881)" fill="#fff" fill-rule="evenodd"/>
  </g>
</svg>
