<svg xmlns="http://www.w3.org/2000/svg" xmlns:xlink="http://www.w3.org/1999/xlink" width="57.321" height="66.362" viewBox="0 0 57.321 66.362">
  <defs>
    <clipPath id="clip-path">
      <rect id="Rectángulo_2266" data-name="Rectángulo 2266" width="57.321" height="66.362" transform="translate(0 0)" fill="none" stroke="#5a04d8" stroke-width="1"/>
    </clipPath>
  </defs>
  <g id="Grupo_1939" data-name="Grupo 1939" transform="translate(0 0)">
    <g id="Grupo_1938" data-name="Grupo 1938" clip-path="url(#clip-path)">
      <path id="Trazado_3565" data-name="Trazado 3565" d="M2.5,51.145V20.136l11.389-6.2a11.528,11.528,0,0,1,12.074.2,11.486,11.486,0,0,0,12.37,0L54.821,2.5V40.074" fill="none" stroke="#5a04d8" stroke-linecap="round" stroke-linejoin="round" stroke-width="5"/>
      <path id="Trazado_3566" data-name="Trazado 3566" d="M54.821,46.226,38.333,57.862a11.486,11.486,0,0,1-12.37,0,11.528,11.528,0,0,0-12.074-.2L2.5,63.862V29.523l11.389-6.2a11.53,11.53,0,0,1,12.074.2,11.482,11.482,0,0,0,12.37,0L54.821,11.887V37.409" fill="none" stroke="#5a04d8" stroke-linecap="round" stroke-linejoin="round" stroke-width="5"/>
      <path id="Trazado_3567" data-name="Trazado 3567" d="M21.181,48.649H34.7a3.539,3.539,0,1,0,0-7.078H25.266a3.539,3.539,0,0,1-3.539-3.539h0a3.538,3.538,0,0,1,3.538-3.539H36.694" fill="none" stroke="#5a04d8" stroke-linecap="round" stroke-linejoin="round" stroke-width="5"/>
      <line id="Línea_207" data-name="Línea 207" y1="4.852" transform="translate(29.985 29.64)" fill="none" stroke="#5a04d8" stroke-linecap="round" stroke-linejoin="round" stroke-width="5"/>
      <line id="Línea_208" data-name="Línea 208" y1="4.852" transform="translate(29.985 48.649)" fill="none" stroke="#5a04d8" stroke-linecap="round" stroke-linejoin="round" stroke-width="5"/>
    </g>
  </g>
</svg>
