<svg xmlns="http://www.w3.org/2000/svg" xmlns:xlink="http://www.w3.org/1999/xlink" width="74.225" height="62.354" viewBox="0 0 74.225 62.354">
  <defs>
    <clipPath id="clip-path">
      <rect id="Rectángulo_2725" data-name="Rectángulo 2725" width="74.225" height="62.354" fill="none" stroke="#5a04d8" stroke-width="1"/>
    </clipPath>
  </defs>
  <g id="Grupo_4214" data-name="Grupo 4214" transform="translate(0 0)">
    <g id="Grupo_4213" data-name="Grupo 4213" transform="translate(0 0)" clip-path="url(#clip-path)">
      <path id="Rectángulo_2724" data-name="Rectángulo 2724" d="M7.355,0H32.48a7.355,7.355,0,0,1,7.355,7.355V18.541A7.356,7.356,0,0,1,32.479,25.9H7.355A7.355,7.355,0,0,1,0,18.542V7.355A7.355,7.355,0,0,1,7.355,0Z" transform="translate(32.171 34.239)" fill="none" stroke="#5a04d8" stroke-linecap="round" stroke-linejoin="round" stroke-width="5"/>
      <line id="Línea_234" data-name="Línea 234" x2="39.835" transform="translate(32.171 40.765)" fill="none" stroke="#5a04d8" stroke-linecap="round" stroke-linejoin="round" stroke-width="5"/>
      <line id="Línea_235" data-name="Línea 235" x2="6.624" transform="translate(59.289 54.176)" fill="none" stroke="#5a04d8" stroke-linecap="round" stroke-linejoin="round" stroke-width="5"/>
      <path id="Trazado_7458" data-name="Trazado 7458" d="M32.455,45.236A22.079,22.079,0,1,1,44.37,34.43" transform="translate(-0.282 -0.282)" fill="none" stroke="#5a04d8" stroke-linecap="round" stroke-linejoin="round" stroke-width="5"/>
      <path id="Trazado_7459" data-name="Trazado 7459" d="M4.635,15.365a4.009,4.009,0,0,1,.9,1.253,7.86,7.86,0,0,0,3.331,3.123c.944.574,2.021,1.008,2.9,1.657A4.326,4.326,0,0,1,13.5,24.578a5.934,5.934,0,0,1,0,.956c-.047,1.269.838,2.092,2.236,2.7.53.23,1.025.506,1.521.775A4.23,4.23,0,0,1,19.247,31.4c.519,1.389.846,2.809,1.424,4.192a6.935,6.935,0,0,1,.238,3.4,12.024,12.024,0,0,0,.06,2.033c.05.709,1.165,1.412,2.13,1.5,1.128.1,1.774-.366,1.578-1.254a8.348,8.348,0,0,1-.132-1.977A2.619,2.619,0,0,1,26.6,36.7a4.651,4.651,0,0,0,3.122-2.909c.089-.289.021-.6.1-.9a3.3,3.3,0,0,1,2.8-2.44c2.2-.46,3.03-1.625,3.282-3.184a2.307,2.307,0,0,0-.406-2.215,7.431,7.431,0,0,0-3.769-2.129,5.4,5.4,0,0,0-2.468.28,12.041,12.041,0,0,1-2.719.657c-.876.02-1.231-.2-1.365-.839a6.254,6.254,0,0,0-.537-2.279,2.216,2.216,0,0,0-2.176-1.079c-1.3.034-2.611-.005-3.917.011a6.685,6.685,0,0,1-5.264-2.281c-.372-.4-.633-.855-.257-1.373.411-.564,1.156-.45,1.765-.456,1.065-.012,2.132.1,3.2.16,1.83.111,2.1-.233,2.395-1.5a3.012,3.012,0,0,0,.005-.358c.083-.709.494-.916,1.438-.784a12.092,12.092,0,0,1,1.358.362,4.093,4.093,0,0,0,4.456-1.558,1.845,1.845,0,0,0-.322-1.96,6.184,6.184,0,0,0-1.175-1.385,3.528,3.528,0,0,1-1.13-2.51c-.112-.8.343-1.591.088-2.394" transform="translate(-0.522 -0.41)" fill="none" stroke="#5a04d8" stroke-linecap="round" stroke-linejoin="round" stroke-width="5"/>
      <path id="Trazado_7460" data-name="Trazado 7460" d="M44.484,9.68s-5.413,5.114-2.034,9.376,7.806,2.838,8.606,6.342" transform="translate(-4.659 -1.091)" fill="none" stroke="#5a04d8" stroke-linecap="round" stroke-linejoin="round" stroke-width="5"/>
    </g>
  </g>
</svg>
