<svg xmlns="http://www.w3.org/2000/svg" xmlns:xlink="http://www.w3.org/1999/xlink" width="66.184" height="66.184" viewBox="0 0 66.184 66.184">
  <defs>
    <clipPath id="clip-path">
      <rect id="Rectángulo_2721" data-name="Rectángulo 2721" width="66.184" height="66.184" transform="translate(0 0)" fill="none" stroke="#5a04d8" stroke-width="1"/>
    </clipPath>
  </defs>
  <g id="Grupo_4208" data-name="Grupo 4208" transform="translate(0 0)">
    <g id="Grupo_4207" data-name="Grupo 4207" clip-path="url(#clip-path)">
      <circle id="Elipse_104" data-name="Elipse 104" cx="30.592" cy="30.592" r="30.592" transform="translate(2.5 2.5)" fill="none" stroke="#5a04d8" stroke-linecap="round" stroke-linejoin="round" stroke-width="5"/>
      <path id="Trazado_7448" data-name="Trazado 7448" d="M5.123,20.139a5.827,5.827,0,0,1,.93,1.735A9.769,9.769,0,0,0,9.505,26.2c.979.8,2.1,1.4,3,2.3a6.734,6.734,0,0,1,1.805,4.4,10.633,10.633,0,0,1,0,1.324,4,4,0,0,0,2.318,3.735,18.092,18.092,0,0,1,1.577,1.073,5.807,5.807,0,0,1,2.057,3.316c.537,1.92.876,3.889,1.475,5.8a12.653,12.653,0,0,1,.247,4.71,22.391,22.391,0,0,0,.063,2.818,2.629,2.629,0,0,0,2.208,2.071c1.169.14,1.838-.505,1.636-1.736a15.142,15.142,0,0,1-.137-2.736,3.617,3.617,0,0,1,2.132-3.594,5.758,5.758,0,0,0,3.237-4.031c.092-.4.022-.834.1-1.239a4,4,0,0,1,2.9-3.379c2.277-.636,3.141-2.249,3.4-4.409a4.059,4.059,0,0,0-.421-3.067,7.533,7.533,0,0,0-3.907-2.95A4.281,4.281,0,0,0,30.645,31a9.991,9.991,0,0,1-2.819.91c-.908.028-1.275-.284-1.415-1.164a11.064,11.064,0,0,0-.556-3.156A2.2,2.2,0,0,0,23.6,26.094c-1.352.045-2.707-.007-4.06.015-2.458.04-4.138-1.266-5.457-3.16a1.7,1.7,0,0,1-.266-1.9c.425-.781,1.2-.623,1.829-.632,1.1-.016,2.21.133,3.314.222,1.9.153,2.173-.323,2.482-2.073.028-.16-.008-.331.006-.5.086-.981.512-1.268,1.491-1.086a10.1,10.1,0,0,1,1.408.5,3.8,3.8,0,0,0,4.619-2.16,3.25,3.25,0,0,0-.334-2.715,8.462,8.462,0,0,0-1.218-1.918,5.741,5.741,0,0,1-1.171-3.477c-.115-1.112.357-2.2.091-3.314" fill="none" stroke="#5a04d8" stroke-linecap="round" stroke-linejoin="round" stroke-width="5"/>
      <path id="Trazado_7449" data-name="Trazado 7449" d="M45.392,6.3a7.794,7.794,0,0,1-1.087,1.146,10.786,10.786,0,0,0-3.05,3.828,2.079,2.079,0,0,0,.416,2.971,4.325,4.325,0,0,0,4.053,1.17,13.81,13.81,0,0,1,2.9-.409,3.656,3.656,0,0,0,2.961-1.269,11.574,11.574,0,0,1,1.928-1.721" fill="none" stroke="#5a04d8" stroke-linecap="round" stroke-linejoin="round" stroke-width="5"/>
      <path id="Trazado_7450" data-name="Trazado 7450" d="M59.312,19.56c-1.063.71-2.267.44-3.4.385a35.181,35.181,0,0,0-5.971-.171,16.722,16.722,0,0,0-4.56,1.593c-2.046.867-1.756,4.053-.147,4.8,1.53.7,1.875,1.937,2.084,3.419.252,1.784,1.326,2.566,3.124,2.667a2.862,2.862,0,0,1,2.978,2.722c.1,1.138.274,1.359,1.412,1.663a4.875,4.875,0,0,1,1.335.4c.838.495.916.717.41,1.506A6.718,6.718,0,0,1,55,39.933a16.271,16.271,0,0,0-1.735,1.5,2.986,2.986,0,0,0-.84,2.155,26.625,26.625,0,0,1-.464,6.218c-.332,1.512,1.036,3.109,2.631,3.554a3.2,3.2,0,0,1,1.325.584" fill="none" stroke="#5a04d8" stroke-linecap="round" stroke-linejoin="round" stroke-width="5"/>
    </g>
  </g>
</svg>
