<svg xmlns="http://www.w3.org/2000/svg" width="27" height="27" viewBox="0 0 27 27">
  <g id="Grupo_5468" data-name="Grupo 5468" transform="translate(-1582 -2513.617)">
    <rect id="Rectángulo_38" data-name="Rectángulo 38" width="27" height="27" rx="7" transform="translate(1582 2513.617)" fill="#221f1c"/>
    <g id="Grupo_598" data-name="Grupo 598" transform="translate(1586.621 2516.924)">
      <path id="Trazado_165" data-name="Trazado 165" d="M357.074-73.538h3.685V-61.7h-3.685Zm1.842-5.882a2.134,2.134,0,0,1,2.134,2.131,2.135,2.135,0,0,1-2.134,2.135,2.135,2.135,0,0,1-2.135-2.135,2.134,2.134,0,0,1,2.135-2.131" transform="translate(-356.781 79.42)" fill="#f2f2f2"/>
      <path id="Trazado_166" data-name="Trazado 166" d="M361.612-74.831h3.528v1.618h.049a3.866,3.866,0,0,1,3.483-1.913c3.725,0,4.412,2.45,4.412,5.637V-63h-3.677V-68.75c0-1.374-.026-3.139-1.911-3.139-1.915,0-2.208,1.495-2.208,3.039V-63h-3.677Z" transform="translate(-355.327 80.713)" fill="#f2f2f2"/>
    </g>
  </g>
</svg>
