<svg id="Grupo_596" data-name="Grupo 596" xmlns="http://www.w3.org/2000/svg" width="27.417" height="27.417" viewBox="0 0 27.417 27.417">
  <path id="Trazado_161" data-name="Trazado 161" d="M292.134-77.687a1.607,1.607,0,0,0-1.607,1.607,1.608,1.608,0,0,0,1.607,1.609,1.608,1.608,0,0,0,1.607-1.609A1.607,1.607,0,0,0,292.134-77.687Z" transform="translate(-271.167 82.582)" fill="#221f1c"/>
  <path id="Trazado_162" data-name="Trazado 162" d="M289.593-76.4a6.76,6.76,0,0,0-6.752,6.752,6.76,6.76,0,0,0,6.752,6.752,6.76,6.76,0,0,0,6.752-6.752A6.76,6.76,0,0,0,289.593-76.4Zm0,11.078a4.329,4.329,0,0,1-4.324-4.326,4.329,4.329,0,0,1,4.324-4.324,4.33,4.33,0,0,1,4.326,4.324A4.33,4.33,0,0,1,289.593-65.32Z" transform="translate(-275.772 83.355)" fill="#221f1c"/>
  <path id="Trazado_163" data-name="Trazado 163" d="M297.6-53.331H286.657a8.244,8.244,0,0,1-8.236-8.234V-72.512a8.245,8.245,0,0,1,8.236-8.236H297.6a8.383,8.383,0,0,1,6.149,2.762,8.013,8.013,0,0,1,2.087,5.474v10.947A8.245,8.245,0,0,1,297.6-53.331ZM286.657-78.168A5.662,5.662,0,0,0,281-72.512v10.947a5.661,5.661,0,0,0,5.656,5.655H297.6a5.662,5.662,0,0,0,5.656-5.655V-72.512a5.663,5.663,0,0,0-5.656-5.656Z" transform="translate(-278.421 80.748)" fill="#221f1c"/>
</svg>
