<svg xmlns="http://www.w3.org/2000/svg" xmlns:xlink="http://www.w3.org/1999/xlink" width="60.74" height="81.026" viewBox="0 0 60.74 81.026">
  <defs>
    <clipPath id="clip-path">
      <rect id="Rectángulo_2391" data-name="Rectángulo 2391" width="60.74" height="81.026" transform="translate(0 0)" fill="none" stroke="#5a04d8" stroke-width="1"/>
    </clipPath>
  </defs>
  <g id="Grupo_2198" data-name="Grupo 2198" transform="translate(0 0)">
    <g id="Grupo_2197" data-name="Grupo 2197" clip-path="url(#clip-path)">
      <path id="Rectángulo_2390" data-name="Rectángulo 2390" d="M7.355,0H37.54A7.355,7.355,0,0,1,44.9,7.355V21.831a7.356,7.356,0,0,1-7.356,7.356H7.355A7.355,7.355,0,0,1,0,21.832V7.355A7.355,7.355,0,0,1,7.355,0Z" transform="translate(13.344 49.339)" fill="none" stroke="#5a04d8" stroke-linecap="round" stroke-linejoin="round" stroke-width="5"/>
      <path id="Trazado_3634" data-name="Trazado 3634" d="M13.344,73.006H7.829A5.329,5.329,0,0,1,2.5,67.677V7.829A5.329,5.329,0,0,1,7.829,2.5H36.471A5.329,5.329,0,0,1,41.8,7.829V49.34" fill="none" stroke="#5a04d8" stroke-linecap="round" stroke-linejoin="round" stroke-width="5"/>
      <line id="Línea_227" data-name="Línea 227" x2="7.991" transform="translate(18.155 9.052)" fill="none" stroke="#5a04d8" stroke-linecap="round" stroke-linejoin="round" stroke-width="5"/>
      <line id="Línea_228" data-name="Línea 228" x2="44.895" transform="translate(13.344 56.695)" fill="none" stroke="#5a04d8" stroke-linecap="round" stroke-linejoin="round" stroke-width="5"/>
      <line id="Línea_229" data-name="Línea 229" x2="7.465" transform="translate(43.906 71.808)" fill="none" stroke="#5a04d8" stroke-linecap="round" stroke-linejoin="round" stroke-width="5"/>
    </g>
  </g>
</svg>
