<svg xmlns="http://www.w3.org/2000/svg" width="62.178" height="55.079" viewBox="0 0 62.178 55.079">
  <g id="Grupo_2187" data-name="Grupo 2187" transform="translate(-1426.692 -1482.941)">
    <g id="K6TL7S" transform="translate(442.841 133.127)">
      <g id="Grupo_684" data-name="Grupo 684" transform="translate(1001.127 1349.814)">
        <path id="Trazado_1095" data-name="Trazado 1095" d="M1019.406,1386.432a18.309,18.309,0,1,1,18.331-18.294A18.311,18.311,0,0,1,1019.406,1386.432Zm.009-32.055a13.738,13.738,0,1,0,13.757,13.721A13.776,13.776,0,0,0,1019.416,1354.376Z" transform="translate(-1001.127 -1349.814)" fill="#5a04d8"/>
        <path id="Trazado_1096" data-name="Trazado 1096" d="M1050.986,1442.912h-3.756c-1.489,0-2.978.031-4.466-.013a2.254,2.254,0,0,1-2.075-3.187,2.145,2.145,0,0,1,1.758-1.338,3.652,3.652,0,0,1,.521-.032q6.669,0,13.339,0a2.233,2.233,0,0,1,2.439,2.049,2.1,2.1,0,0,1-.61,1.8c-1.631,1.65-3.261,3.3-4.914,4.927a2.279,2.279,0,0,1-3.171-3.27C1050.319,1443.576,1050.593,1443.307,1050.986,1442.912Z" transform="translate(-1031.332 -1417.742)" fill="#5a04d8"/>
        <path id="Trazado_1097" data-name="Trazado 1097" d="M1048.663,1384.556c2.59,0,5.18.005,7.769,0a2.319,2.319,0,0,1,2.341,1.38,2.249,2.249,0,0,1-1.728,3.156,4.243,4.243,0,0,1-.637.036q-6.587,0-13.175,0a2.176,2.176,0,0,1-2.485-2.04,2.329,2.329,0,0,1,.457-1.6c1.518-1.65,3.106-3.239,4.728-4.787a2.219,2.219,0,0,1,3.008.184,1.985,1.985,0,0,1-.47,3.43Z" transform="translate(-1031.525 -1373.126)" fill="#5a04d8"/>
      </g>
    </g>
    <path id="Trazado_1098" data-name="Trazado 1098" d="M594.183,568.142a2.5,2.5,0,0,1-2.252-3.582,34.442,34.442,0,0,1,11.723-13.713,30.507,30.507,0,0,1,34.377,0,34.446,34.446,0,0,1,11.723,13.712,2.5,2.5,0,0,1-4.508,2.163,29.443,29.443,0,0,0-10.009-11.729,25.507,25.507,0,0,0-28.79,0,29.439,29.439,0,0,0-10.009,11.729A2.5,2.5,0,0,1,594.183,568.142Z" transform="matrix(-0.966, -0.259, 0.259, -0.966, 1913.348, 2218.113)" fill="#5a04d8"/>
  </g>
</svg>
