<?xml version="1.0" encoding="utf-8"?>
<!-- Generator: Adobe Illustrator 28.0.0, SVG Export Plug-In . SVG Version: 6.00 Build 0)  -->
<svg version="1.1" id="Layer_1" xmlns="http://www.w3.org/2000/svg" xmlns:xlink="http://www.w3.org/1999/xlink" x="0px" y="0px"
	 viewBox="0 0 58 58" style="enable-background:new 0 0 58 58;" xml:space="preserve">
<style type="text/css">
	.st0{fill:#572279;}
	.st1{fill:#D60812;}
	.st2{fill:#000F8F;}
</style>
<g id="Grupo_310" transform="translate(-578.103 -30.088)">
	<g id="Grupo_317" transform="translate(578.103 30.088)">
		<g id="Grupo_316">
			<g id="Grupo_313">
				<g id="Grupo_312" transform="translate(0 16.432)">
					<path id="Trazado_663" class="st0" d="M29.2,0H8.6C8.2,1.5,8.1,3,8.1,4.5V9h21c2.5,0,4.5-2,4.5-4.5C33.5,2.1,31.6,0.1,29.2,0
						L29.2,0z"/>
					<path id="Trazado_664" class="st0" d="M40,0c0.6,1.4,0.9,3,0.9,4.5c0,2.5,2,4.5,4.5,4.5C47.9,9,50,7,50,4.5
						c0-1.5-0.2-3-0.5-4.5H40z"/>
				</g>
				<path id="Trazado_665" class="st1" d="M18,16.4c2.5-6.1,9.4-9,15.5-6.5c2.9,1.2,5.3,3.5,6.5,6.5h9.5C47,5.1,35.8-2,24.5,0.5
					c-8,1.8-14.2,8-15.9,15.9"/>
			</g>
			<g id="Grupo_315" transform="translate(0 32.544)">
				<g id="Grupo_314">
					<path id="Trazado_666" class="st0" d="M28.8,9h20.6C49.8,7.6,50,6,50,4.5V0H29c-2.5,0-4.5,2-4.5,4.5C24.5,7,26.4,8.9,28.8,9
						L28.8,9z"/>
					<path id="Trazado_667" class="st0" d="M18,9c-0.6-1.4-0.9-3-0.9-4.5c0-2.5-2-4.5-4.5-4.5c-2.5,0-4.5,2-4.5,4.5
						c0,1.5,0.2,3,0.5,4.5H18z"/>
				</g>
				<path id="Trazado_668" class="st2" d="M40,9.1c-2.5,6.1-9.4,9-15.5,6.5C21.6,14.3,19.2,12,18,9H8.5C11,20.3,22.2,27.5,33.5,25
					c8-1.8,14.2-8,15.9-15.9"/>
			</g>
		</g>
	</g>
</g>
</svg>
