<svg xmlns="http://www.w3.org/2000/svg" width="284.198" height="58.026" viewBox="0 0 284.198 58.026">
  <g id="Grupo_310" data-name="Grupo 310" transform="translate(-578.103 -30.088)">
    <g id="Grupo_311" data-name="Grupo 311" transform="translate(640.823 34.489)">
      <g id="Grupo_310-2" data-name="Grupo 310" transform="translate(0 0)">
        <path id="Trazado_655" data-name="Trazado 655" d="M732.074,58.635a3.191,3.191,0,0,1,.91,2.357V84.827q0,6.535-4.044,9.668a16.254,16.254,0,0,1-10.257,3.133,25.207,25.207,0,0,1-4.419-.535,19.521,19.521,0,0,1-3.99-1.071q-2.625-1.124-2.625-3.107a2.751,2.751,0,0,1,.16-.857,3.316,3.316,0,0,1,1.1-1.794,2.657,2.657,0,0,1,1.688-.617,3.2,3.2,0,0,1,1.018.161q.213.052,2.651.99a12.443,12.443,0,0,0,4.419.938q3.963,0,5.918-1.58a5.422,5.422,0,0,0,1.955-4.473V83.113a10.669,10.669,0,0,1-3.562,3,10.273,10.273,0,0,1-5.115,1.339,12.738,12.738,0,0,1-6.83-1.9,13.309,13.309,0,0,1-4.847-5.276,16.252,16.252,0,0,1-1.767-7.659,16.623,16.623,0,0,1,1.741-7.686,13.221,13.221,0,0,1,4.767-5.3,12.388,12.388,0,0,1,6.722-1.9,11.667,11.667,0,0,1,5.089,1.124,11.981,11.981,0,0,1,3.8,2.733v-.589a3.212,3.212,0,0,1,.911-2.33,3.078,3.078,0,0,1,2.3-.937A3.125,3.125,0,0,1,732.074,58.635Zm-7.526,20.381a9.241,9.241,0,0,0,2.277-6.4,9.341,9.341,0,0,0-2.277-6.428,7.476,7.476,0,0,0-5.865-2.571,7.4,7.4,0,0,0-5.838,2.571,9.408,9.408,0,0,0-2.249,6.428,9.307,9.307,0,0,0,2.249,6.4,7.428,7.428,0,0,0,5.838,2.544A7.51,7.51,0,0,0,724.548,79.016Z" transform="translate(-704.436 -48.405)" fill="#221f1c"/>
        <path id="Trazado_656" data-name="Trazado 656" d="M775.635,44.737a2.515,2.515,0,0,1-.75-2.089V41.631a2.431,2.431,0,0,1,.8-2.09,6.029,6.029,0,0,1,5.2,0,2.521,2.521,0,0,1,.75,2.09v1.017a2.462,2.462,0,0,1-.776,2.116,4.677,4.677,0,0,1-2.651.562A4.252,4.252,0,0,1,775.635,44.737Zm4.928,31.79a3.3,3.3,0,0,1-4.607,0,3.207,3.207,0,0,1-.911-2.33V52.075a3.21,3.21,0,0,1,.911-2.329,3.3,3.3,0,0,1,4.607,0,3.214,3.214,0,0,1,.911,2.329V74.2A3.212,3.212,0,0,1,780.563,76.527Z" transform="translate(-739.91 -38.953)" fill="#221f1c"/>
        <path id="Trazado_657" data-name="Trazado 657" d="M820.679,59.687a2.76,2.76,0,0,1,.857,2.063,4.155,4.155,0,0,1-.428,1.607L811.091,85.424a3.33,3.33,0,0,1-1.1,1.446,2.977,2.977,0,0,1-1.634.59l-.482.053a2.817,2.817,0,0,1-1.688-.562,3.678,3.678,0,0,1-1.2-1.527l-9.963-22.067a4.229,4.229,0,0,1-.375-1.714,2.678,2.678,0,0,1,.911-1.956,3.107,3.107,0,0,1,2.25-.883,3.475,3.475,0,0,1,1.875.535,3.311,3.311,0,0,1,1.285,1.5l7.392,16.925L815.7,60.893a3.531,3.531,0,0,1,1.179-1.554,2.533,2.533,0,0,1,1.661-.482A2.96,2.96,0,0,1,820.679,59.687Z" transform="translate(-749.86 -48.949)" fill="#221f1c"/>
        <path id="Trazado_658" data-name="Trazado 658" d="M877.578,74.008a3.41,3.41,0,0,1-2.249.8H857.653a8.074,8.074,0,0,0,2.946,4.954,8.231,8.231,0,0,0,5.2,1.794,11.528,11.528,0,0,0,3.429-.4,8.888,8.888,0,0,0,1.955-.857c.483-.3.812-.509.991-.616a4.082,4.082,0,0,1,1.821-.482,2.63,2.63,0,0,1,1.929.8,2.572,2.572,0,0,1,.8,1.875,3.341,3.341,0,0,1-1.5,2.624,12.771,12.771,0,0,1-4.017,2.089,16.606,16.606,0,0,1-12.935-1.018,13.076,13.076,0,0,1-5.169-5.169,15.067,15.067,0,0,1-1.821-7.418,16.427,16.427,0,0,1,1.928-8.088,13.694,13.694,0,0,1,5.089-5.329,13.154,13.154,0,0,1,6.749-1.848,12.506,12.506,0,0,1,6.669,1.929,14.428,14.428,0,0,1,5.008,5.2,13.975,13.975,0,0,1,1.875,7.07A2.754,2.754,0,0,1,877.578,74.008Zm-19.872-4.553H871.74v-.376a5.539,5.539,0,0,0-2.2-3.856,6.952,6.952,0,0,0-4.5-1.607Q858.831,63.617,857.706,69.455Z" transform="translate(-778.377 -48.405)" fill="#221f1c"/>
        <path id="Trazado_659" data-name="Trazado 659" d="M949.022,73.829a3.314,3.314,0,0,1,.322,1.5,2.991,2.991,0,0,1-.7,1.821,2.291,2.291,0,0,1-1.928.912,2.766,2.766,0,0,1-1.821-.536l-2.947-2.517-1.714-1.5a17.059,17.059,0,0,1-12.587,4.982,14.225,14.225,0,0,1-6.776-1.634,12.618,12.618,0,0,1-4.821-4.338,10.455,10.455,0,0,1-1.741-5.758q0-7.926,7.874-11.409a13.166,13.166,0,0,1-1.553-2.678,7.022,7.022,0,0,1-.536-2.732,9.061,9.061,0,0,1,1.446-4.954,10.528,10.528,0,0,1,4.1-3.669,13,13,0,0,1,6.133-1.392,16.966,16.966,0,0,1,6.668,1.258,7.522,7.522,0,0,1,3.991,3.241,4.6,4.6,0,0,1,.482,2.089,2.354,2.354,0,0,1-.776,1.794,2.832,2.832,0,0,1-2.009.722,2.4,2.4,0,0,1-2.089-.964,6.431,6.431,0,0,0-2.651-2.142,9.272,9.272,0,0,0-3.616-.642,5.072,5.072,0,0,0-3.615,1.232,4.078,4.078,0,0,0-1.313,3.106,5.731,5.731,0,0,0,1.313,3.455,36.492,36.492,0,0,0,3.615,3.991l1.5,1.5q1.714,1.875,6.052,6a20.383,20.383,0,0,0,1.5-5.3,1.916,1.916,0,0,1,.7-1.365,3.082,3.082,0,0,1,1.875-.456,2.568,2.568,0,0,1,2.036.938,3.383,3.383,0,0,1,.8,2.276l-.054.535a23.393,23.393,0,0,1-2.41,7.5q2.142,1.875,4.178,3.8A4.91,4.91,0,0,1,949.022,73.829Zm-13.176-4.178a104.023,104.023,0,0,1-8.892-8.891l-.964-1.124a7.554,7.554,0,0,0-4.017,2.356,6.162,6.162,0,0,0-1.125,3.8,6.309,6.309,0,0,0,2.009,4.687q2.008,1.956,6.294,1.956A9.365,9.365,0,0,0,935.846,69.651Z" transform="translate(-810.117 -39.442)" fill="#221f1c"/>
        <path id="Trazado_660" data-name="Trazado 660" d="M1017.983,58.635a3.19,3.19,0,0,1,.911,2.357V84.827q0,6.535-4.044,9.668a16.257,16.257,0,0,1-10.257,3.133,25.21,25.21,0,0,1-4.419-.535,19.521,19.521,0,0,1-3.99-1.071q-2.625-1.124-2.624-3.107a2.75,2.75,0,0,1,.16-.857,3.316,3.316,0,0,1,1.1-1.794,2.655,2.655,0,0,1,1.687-.617,3.2,3.2,0,0,1,1.018.161q.214.052,2.651.99a12.444,12.444,0,0,0,4.419.938q3.963,0,5.919-1.58a5.423,5.423,0,0,0,1.955-4.473V83.113a10.669,10.669,0,0,1-3.562,3,10.274,10.274,0,0,1-5.116,1.339,12.735,12.735,0,0,1-6.829-1.9,13.308,13.308,0,0,1-4.847-5.276,16.252,16.252,0,0,1-1.768-7.659,16.624,16.624,0,0,1,1.741-7.686,13.224,13.224,0,0,1,4.768-5.3,12.386,12.386,0,0,1,6.722-1.9,11.666,11.666,0,0,1,5.089,1.124,11.983,11.983,0,0,1,3.8,2.733v-.589a3.212,3.212,0,0,1,.911-2.33,3.077,3.077,0,0,1,2.3-.937A3.124,3.124,0,0,1,1017.983,58.635Zm-7.525,20.381a9.243,9.243,0,0,0,2.277-6.4,9.343,9.343,0,0,0-2.277-6.428,7.477,7.477,0,0,0-5.865-2.571,7.394,7.394,0,0,0-5.838,2.571,9.406,9.406,0,0,0-2.25,6.428,9.3,9.3,0,0,0,2.25,6.4,7.427,7.427,0,0,0,5.838,2.544A7.511,7.511,0,0,0,1010.458,79.016Z" transform="translate(-848.401 -48.405)" fill="#221f1c"/>
        <path id="Trazado_661" data-name="Trazado 661" d="M1082.78,74.008a3.41,3.41,0,0,1-2.249.8h-17.676a8.072,8.072,0,0,0,2.946,4.954A8.229,8.229,0,0,0,1071,81.56a11.528,11.528,0,0,0,3.429-.4,8.9,8.9,0,0,0,1.955-.857c.482-.3.811-.509.99-.616a4.083,4.083,0,0,1,1.821-.482,2.63,2.63,0,0,1,1.929.8,2.573,2.573,0,0,1,.8,1.875,3.341,3.341,0,0,1-1.5,2.624,12.766,12.766,0,0,1-4.017,2.089,16.606,16.606,0,0,1-12.935-1.018,13.076,13.076,0,0,1-5.169-5.169,15.067,15.067,0,0,1-1.821-7.418,16.428,16.428,0,0,1,1.928-8.088,13.7,13.7,0,0,1,5.089-5.329,13.155,13.155,0,0,1,6.749-1.848,12.509,12.509,0,0,1,6.669,1.929,14.432,14.432,0,0,1,5.008,5.2,13.976,13.976,0,0,1,1.875,7.07A2.753,2.753,0,0,1,1082.78,74.008Zm-19.872-4.553h14.033v-.376a5.539,5.539,0,0,0-2.2-3.856,6.951,6.951,0,0,0-4.5-1.607Q1064.033,63.617,1062.908,69.455Z" transform="translate(-881.703 -48.405)" fill="#221f1c"/>
        <path id="Trazado_662" data-name="Trazado 662" d="M1130.757,75.882a2.863,2.863,0,0,1-.964,4.338,6.557,6.557,0,0,1-3.562.991,10.377,10.377,0,0,1-5.6-1.419q-2.277-1.419-2.276-6.026V58.983h-2.464a2.929,2.929,0,0,1-3-3,2.756,2.756,0,0,1,.857-2.063,2.959,2.959,0,0,1,2.142-.83h2.464V49.664a3.2,3.2,0,0,1,3.268-3.268,3.017,3.017,0,0,1,2.25.937,3.215,3.215,0,0,1,.911,2.33v3.428h3.8a2.929,2.929,0,0,1,3,3,2.755,2.755,0,0,1-.857,2.062,2.954,2.954,0,0,1-2.142.83h-3.8V73.5a2.049,2.049,0,0,0,.589,1.634,2.377,2.377,0,0,0,1.607.508,4.553,4.553,0,0,0,1.178-.214,3.212,3.212,0,0,1,1.232-.268A1.784,1.784,0,0,1,1130.757,75.882Z" transform="translate(-910.109 -42.701)" fill="#221f1c"/>
      </g>
    </g>
    <g id="Grupo_317" data-name="Grupo 317" transform="translate(578.103 30.088)">
      <g id="Grupo_316" data-name="Grupo 316">
        <g id="Grupo_313" data-name="Grupo 313">
          <g id="Grupo_312" data-name="Grupo 312" transform="translate(0 16.432)">
            <path id="Trazado_663" data-name="Trazado 663" d="M599.242,63.186H578.6a20.961,20.961,0,0,0-.492,4.52v4.53h20.952a4.527,4.527,0,0,0,.187-9.05Z" transform="translate(-578.103 -63.186)" fill="#572279"/>
            <path id="Trazado_664" data-name="Trazado 664" d="M642.46,63.186a11.831,11.831,0,0,1,.895,4.52,4.529,4.529,0,1,0,9.059,0,20.934,20.934,0,0,0-.492-4.52Z" transform="translate(-610.509 -63.186)" fill="#572279"/>
          </g>
          <path id="Trazado_665" data-name="Trazado 665" d="M588.558,46.511a11.892,11.892,0,0,1,22,.009h9.461a20.953,20.953,0,0,0-40.92,0" transform="translate(-578.602 -30.088)" fill="#d60812"/>
        </g>
        <g id="Grupo_315" data-name="Grupo 315" transform="translate(0 32.544)">
          <g id="Grupo_314" data-name="Grupo 314">
            <path id="Trazado_666" data-name="Trazado 666" d="M615.526,104.69h20.646a20.935,20.935,0,0,0,.492-4.52V95.64H615.712a4.527,4.527,0,0,0-.187,9.05Z" transform="translate(-594.76 -95.64)" fill="#572279"/>
            <path id="Trazado_667" data-name="Trazado 667" d="M588.057,104.69a11.825,11.825,0,0,1-.9-4.52,4.529,4.529,0,0,0-9.059,0,20.966,20.966,0,0,0,.492,4.52Z" transform="translate(-578.103 -95.64)" fill="#572279"/>
          </g>
          <path id="Trazado_668" data-name="Trazado 668" d="M610.552,113.877a11.892,11.892,0,0,1-22-.009h-9.462a20.953,20.953,0,0,0,40.92,0" transform="translate(-578.602 -104.818)" fill="#000f8f"/>
        </g>
      </g>
    </g>
  </g>
</svg>
