<svg xmlns="http://www.w3.org/2000/svg" xmlns:xlink="http://www.w3.org/1999/xlink" width="283.616" height="57.921" viewBox="0 0 283.616 57.921">
  <defs>
    <clipPath id="clip-path">
      <rect id="Rectángulo_3044" data-name="Rectángulo 3044" width="283.616" height="57.921" fill="none"/>
    </clipPath>
  </defs>
  <g id="Grupo_4845" data-name="Grupo 4845" transform="translate(0 0)">
    <g id="Grupo_4845-2" data-name="Grupo 4845" transform="translate(0 0)" clip-path="url(#clip-path)">
      <path id="Trazado_7595" data-name="Trazado 7595" d="M73.051,10.461a3.066,3.066,0,0,0-2.294.936,3.2,3.2,0,0,0-.911,2.324v.588a11.944,11.944,0,0,0-3.792-2.728,11.649,11.649,0,0,0-5.079-1.122,12.361,12.361,0,0,0-6.707,1.9,13.216,13.216,0,0,0-4.758,5.29,16.607,16.607,0,0,0-1.737,7.669,16.229,16.229,0,0,0,1.764,7.644,13.3,13.3,0,0,0,4.838,5.265,12.7,12.7,0,0,0,6.815,1.9,10.247,10.247,0,0,0,5.1-1.337,10.635,10.635,0,0,0,3.555-2.994v2.566a5.413,5.413,0,0,1-1.95,4.463Q65.947,44.4,61.993,44.4a12.415,12.415,0,0,1-4.412-.937q-2.431-.936-2.646-.988a3.181,3.181,0,0,0-1.014-.16,2.645,2.645,0,0,0-1.686.616,3.321,3.321,0,0,0-1.1,1.79,2.723,2.723,0,0,0-.159.856q0,1.979,2.619,3.1a19.475,19.475,0,0,0,3.982,1.069,25.193,25.193,0,0,0,4.409.533,16.226,16.226,0,0,0,10.236-3.126q4.035-3.127,4.036-9.648V13.715a3.181,3.181,0,0,0-.908-2.352,3.115,3.115,0,0,0-2.3-.9M67.844,31.7a7.5,7.5,0,0,1-5.854,2.539A7.412,7.412,0,0,1,56.164,31.7a9.29,9.29,0,0,1-2.245-6.386A9.394,9.394,0,0,1,56.164,18.9a7.384,7.384,0,0,1,5.826-2.566A7.466,7.466,0,0,1,67.844,18.9a9.328,9.328,0,0,1,2.271,6.415A9.225,9.225,0,0,1,67.844,31.7" transform="translate(14.823 3.246)" fill="#fff"/>
      <path id="Trazado_7596" data-name="Trazado 7596" d="M75.441,11.8a3.2,3.2,0,0,0-.909,2.324V36.2a3.2,3.2,0,0,0,.909,2.326,3.3,3.3,0,0,0,4.6,0,3.209,3.209,0,0,0,.909-2.323V14.123a3.212,3.212,0,0,0-.909-2.324,3.3,3.3,0,0,0-4.6,0" transform="translate(23.127 3.371)" fill="#fff"/>
      <path id="Trazado_7597" data-name="Trazado 7597" d="M81.149,6.03A2.519,2.519,0,0,0,80.4,3.944a6.024,6.024,0,0,0-5.19,0,2.428,2.428,0,0,0-.8,2.086V7.046a2.517,2.517,0,0,0,.748,2.085,4.252,4.252,0,0,0,2.568.587,4.663,4.663,0,0,0,2.646-.561,2.454,2.454,0,0,0,.774-2.111Z" transform="translate(23.086 1.042)" fill="#fff"/>
      <path id="Trazado_7598" data-name="Trazado 7598" d="M105.725,10.916a2.527,2.527,0,0,0-1.658.481,3.516,3.516,0,0,0-1.177,1.551L95.568,29.784l-7.376-16.89a3.3,3.3,0,0,0-1.283-1.5,3.465,3.465,0,0,0-1.871-.533,3.1,3.1,0,0,0-2.246.881,2.677,2.677,0,0,0-.909,1.952,4.229,4.229,0,0,0,.375,1.71L92.2,37.428a3.681,3.681,0,0,0,1.2,1.524,2.817,2.817,0,0,0,1.684.561l.482-.054a2.964,2.964,0,0,0,1.63-.588,3.327,3.327,0,0,0,1.1-1.443l10-22.022a4.146,4.146,0,0,0,.427-1.6,2.758,2.758,0,0,0-.856-2.058,2.954,2.954,0,0,0-2.134-.828" transform="translate(25.409 3.371)" fill="#fff"/>
      <path id="Trazado_7599" data-name="Trazado 7599" d="M123.69,12.376a12.473,12.473,0,0,0-6.655-1.925,13.128,13.128,0,0,0-6.735,1.844,13.676,13.676,0,0,0-5.079,5.319,16.4,16.4,0,0,0-1.924,8.071,15.024,15.024,0,0,0,1.817,7.4,13.043,13.043,0,0,0,5.159,5.159,16.564,16.564,0,0,0,12.908,1.015,12.7,12.7,0,0,0,4.01-2.085,3.337,3.337,0,0,0,1.5-2.618,2.568,2.568,0,0,0-.8-1.871,2.625,2.625,0,0,0-1.926-.8,4.057,4.057,0,0,0-1.816.481c-.18.106-.507.314-.989.615a8.861,8.861,0,0,1-1.951.856,11.513,11.513,0,0,1-3.423.4,8.216,8.216,0,0,1-5.189-1.79,8.054,8.054,0,0,1-2.94-4.944h17.639a3.408,3.408,0,0,0,2.245-.8,2.753,2.753,0,0,0,1.021-2.086,13.964,13.964,0,0,0-1.871-7.056,14.4,14.4,0,0,0-5-5.189m.024,9.787h-14q1.122-5.826,7.318-5.827a6.937,6.937,0,0,1,4.49,1.6,5.526,5.526,0,0,1,2.2,3.848Z" transform="translate(32.053 3.243)" fill="#fff"/>
      <path id="Trazado_7600" data-name="Trazado 7600" d="M160.7,36.229q-2.03-1.922-4.169-3.792a23.307,23.307,0,0,0,2.4-7.486l.054-.533a3.373,3.373,0,0,0-.8-2.271,2.569,2.569,0,0,0-2.034-.937,3.073,3.073,0,0,0-1.87.456,1.913,1.913,0,0,0-.7,1.361,20.313,20.313,0,0,1-1.5,5.29q-4.33-4.118-6.041-5.988l-1.5-1.5a36.469,36.469,0,0,1-3.607-3.983,5.722,5.722,0,0,1-1.31-3.447,4.068,4.068,0,0,1,1.31-3.1,5.058,5.058,0,0,1,3.607-1.229,9.232,9.232,0,0,1,3.609.641,6.405,6.405,0,0,1,2.646,2.137,2.393,2.393,0,0,0,2.085.962,2.82,2.82,0,0,0,2-.721,2.347,2.347,0,0,0,.774-1.79,4.566,4.566,0,0,0-.481-2.085,7.5,7.5,0,0,0-3.982-3.234,16.934,16.934,0,0,0-6.655-1.255,12.956,12.956,0,0,0-6.12,1.389,10.524,10.524,0,0,0-4.092,3.661,9.056,9.056,0,0,0-1.443,4.944,7.053,7.053,0,0,0,.535,2.727,13.222,13.222,0,0,0,1.55,2.672q-7.858,3.477-7.857,11.387a10.443,10.443,0,0,0,1.736,5.746,12.609,12.609,0,0,0,4.811,4.329,14.2,14.2,0,0,0,6.764,1.63A17.015,17.015,0,0,0,153,37.24l1.71,1.5,2.943,2.512a2.758,2.758,0,0,0,1.816.536,2.285,2.285,0,0,0,1.924-.911,2.971,2.971,0,0,0,.7-1.817,3.316,3.316,0,0,0-.322-1.5,4.864,4.864,0,0,0-1.069-1.331m-18.76-.06q-4.279,0-6.283-1.952a6.3,6.3,0,0,1-2-4.676,6.166,6.166,0,0,1,1.123-3.793,7.548,7.548,0,0,1,4.01-2.351l.963,1.122a103.668,103.668,0,0,0,8.873,8.873,9.353,9.353,0,0,1-6.681,2.778" transform="translate(39.448 1.156)" fill="#fff"/>
      <path id="Trazado_7601" data-name="Trazado 7601" d="M181.159,10.461a3.067,3.067,0,0,0-2.3.936,3.2,3.2,0,0,0-.909,2.324v.588a11.959,11.959,0,0,0-3.792-2.728,11.653,11.653,0,0,0-5.079-1.122,12.361,12.361,0,0,0-6.707,1.9,13.19,13.19,0,0,0-4.759,5.29,16.594,16.594,0,0,0-1.737,7.669,16.215,16.215,0,0,0,1.765,7.644,13.292,13.292,0,0,0,4.836,5.265,12.7,12.7,0,0,0,6.815,1.9,10.256,10.256,0,0,0,5.106-1.337,10.648,10.648,0,0,0,3.555-2.994v2.566a5.414,5.414,0,0,1-1.951,4.463Q174.052,44.4,170.1,44.4a12.414,12.414,0,0,1-4.41-.937q-2.431-.936-2.646-.988a3.183,3.183,0,0,0-1.015-.16,2.64,2.64,0,0,0-1.684.616,3.314,3.314,0,0,0-1.1,1.79,2.762,2.762,0,0,0-.16.856q0,1.979,2.619,3.1a19.475,19.475,0,0,0,3.982,1.069,25.193,25.193,0,0,0,4.409.533,16.226,16.226,0,0,0,10.236-3.126q4.035-3.127,4.036-9.648V13.715a3.177,3.177,0,0,0-.909-2.352,3.115,3.115,0,0,0-2.3-.9M175.95,31.7a7.5,7.5,0,0,1-5.853,2.539,7.412,7.412,0,0,1-5.826-2.539,9.278,9.278,0,0,1-2.246-6.386,9.389,9.389,0,0,1,2.246-6.415,7.38,7.38,0,0,1,5.826-2.566A7.466,7.466,0,0,1,175.95,18.9a9.323,9.323,0,0,1,2.272,6.415A9.219,9.219,0,0,1,175.95,31.7" transform="translate(48.37 3.246)" fill="#fff"/>
      <path id="Trazado_7602" data-name="Trazado 7602" d="M201.28,12.379a12.481,12.481,0,0,0-6.656-1.925,13.128,13.128,0,0,0-6.735,1.844,13.685,13.685,0,0,0-5.079,5.319,16.4,16.4,0,0,0-1.924,8.071,15.024,15.024,0,0,0,1.817,7.4,13.043,13.043,0,0,0,5.159,5.159,16.565,16.565,0,0,0,12.908,1.015,12.7,12.7,0,0,0,4.01-2.085,3.331,3.331,0,0,0,1.5-2.618,2.568,2.568,0,0,0-.8-1.871,2.624,2.624,0,0,0-1.925-.8,4.058,4.058,0,0,0-1.817.481c-.18.106-.507.314-.988.615a8.95,8.95,0,0,1-1.951.856,11.518,11.518,0,0,1-3.423.4,8.2,8.2,0,0,1-5.187-1.794,8.054,8.054,0,0,1-2.94-4.944h17.639a3.408,3.408,0,0,0,2.245-.8,2.753,2.753,0,0,0,1.018-2.082,13.964,13.964,0,0,0-1.871-7.056,14.414,14.414,0,0,0-5-5.189m.024,9.783h-14q1.122-5.826,7.318-5.827a6.934,6.934,0,0,1,4.49,1.6,5.526,5.526,0,0,1,2.2,3.848Z" transform="translate(56.129 3.244)" fill="#fff"/>
      <path id="Trazado_7603" data-name="Trazado 7603" d="M217.874,18.733a2.947,2.947,0,0,0,2.137-.828,2.747,2.747,0,0,0,.856-2.058c0-.047,0-.1,0-.143a2.921,2.921,0,0,0-2.994-2.85h-3.792V9.432a3.206,3.206,0,0,0-.909-2.326,3.008,3.008,0,0,0-2.245-.934q-.069,0-.138,0a3.193,3.193,0,0,0-3.124,3.261v3.419h-2.459a2.947,2.947,0,0,0-2.137.828,2.749,2.749,0,0,0-.856,2.058c0,.048,0,.1,0,.144a2.923,2.923,0,0,0,2.994,2.85h2.458V33.486q0,4.6,2.272,6.013a10.351,10.351,0,0,0,5.588,1.416,6.538,6.538,0,0,0,3.555-.989,2.827,2.827,0,0,0,.5-.314,2.858,2.858,0,0,0,.466-4.015,1.782,1.782,0,0,0-1.364-.719,3.19,3.19,0,0,0-1.23.267,4.59,4.59,0,0,1-1.175.214,2.373,2.373,0,0,1-1.6-.507,2.046,2.046,0,0,1-.587-1.631V18.733Z" transform="translate(62.748 1.915)" fill="#fff"/>
      <path id="Trazado_7604" data-name="Trazado 7604" d="M41.335,16.405A20.91,20.91,0,0,0,.007,20.916v4.521h20.91a4.518,4.518,0,0,0,.187-9.032H9.925l.014-.009a11.866,11.866,0,0,1,21.953.009h0a11.813,11.813,0,0,1,.894,4.511,4.521,4.521,0,0,0,9.041,0,20.887,20.887,0,0,0-.491-4.511Z" transform="translate(0.002 0)" fill="#fff"/>
      <path id="Trazado_7605" data-name="Trazado 7605" d="M16.4,29.312a4.517,4.517,0,0,0,4.328,4.51H31.9l-.01.009a11.867,11.867,0,0,1-21.956-.009h0a11.786,11.786,0,0,1-.9-4.51,4.521,4.521,0,1,0-9.041,0,20.958,20.958,0,0,0,.491,4.51h0a20.91,20.91,0,0,0,40.836,0h0a20.876,20.876,0,0,0,.491-4.51V24.791H20.914A4.517,4.517,0,0,0,16.4,29.312" transform="translate(0 7.693)" fill="#fff"/>
    </g>
  </g>
</svg>
