<svg xmlns="http://www.w3.org/2000/svg" width="105" height="58.026" viewBox="0 0 105 58.026">
  <g id="Grupo_310-2" data-name="Grupo 310" transform="translate(0 0)">
    <path id="Trazado_655" data-name="Trazado 655" d="M732.074,58.635a3.191,3.191,0,0,1,.91,2.357V84.827q0,6.535-4.044,9.668a16.254,16.254,0,0,1-10.257,3.133,25.207,25.207,0,0,1-4.419-.535,19.521,19.521,0,0,1-3.99-1.071q-2.625-1.124-2.625-3.107a2.751,2.751,0,0,1,.16-.857,3.316,3.316,0,0,1,1.1-1.794,2.657,2.657,0,0,1,1.688-.617,3.2,3.2,0,0,1,1.018.161q.213.052,2.651.99a12.443,12.443,0,0,0,4.419.938q3.963,0,5.918-1.58a5.422,5.422,0,0,0,1.955-4.473V83.113a10.669,10.669,0,0,1-3.562,3,10.273,10.273,0,0,1-5.115,1.339,12.738,12.738,0,0,1-6.83-1.9,13.309,13.309,0,0,1-4.847-5.276,16.252,16.252,0,0,1-1.767-7.659,16.623,16.623,0,0,1,1.741-7.686,13.221,13.221,0,0,1,4.767-5.3,12.388,12.388,0,0,1,6.722-1.9,11.667,11.667,0,0,1,5.089,1.124,11.981,11.981,0,0,1,3.8,2.733v-.589a3.212,3.212,0,0,1,.911-2.33,3.078,3.078,0,0,1,2.3-.937A3.125,3.125,0,0,1,732.074,58.635Zm-7.526,20.381a9.241,9.241,0,0,0,2.277-6.4,9.341,9.341,0,0,0-2.277-6.428,7.476,7.476,0,0,0-5.865-2.571,7.4,7.4,0,0,0-5.838,2.571,9.408,9.408,0,0,0-2.249,6.428,9.307,9.307,0,0,0,2.249,6.4,7.428,7.428,0,0,0,5.838,2.544A7.51,7.51,0,0,0,724.548,79.016Z" transform="translate(-704.436 -48.405)" fill="#D60812"/>
    <path id="Trazado_656" data-name="Trazado 656" d="M775.635,44.737a2.515,2.515,0,0,1-.75-2.089V41.631a2.431,2.431,0,0,1,.8-2.09,6.029,6.029,0,0,1,5.2,0,2.521,2.521,0,0,1,.75,2.09v1.017a2.462,2.462,0,0,1-.776,2.116,4.677,4.677,0,0,1-2.651.562A4.252,4.252,0,0,1,775.635,44.737Zm4.928,31.79a3.3,3.3,0,0,1-4.607,0,3.207,3.207,0,0,1-.911-2.33V52.075a3.21,3.21,0,0,1,.911-2.329,3.3,3.3,0,0,1,4.607,0,3.214,3.214,0,0,1,.911,2.329V74.2A3.212,3.212,0,0,1,780.563,76.527Z" transform="translate(-739.91 -38.953)" fill="#D60812"/>
    <path id="Trazado_657" data-name="Trazado 657" d="M820.679,59.687a2.76,2.76,0,0,1,.857,2.063,4.155,4.155,0,0,1-.428,1.607L811.091,85.424a3.33,3.33,0,0,1-1.1,1.446,2.977,2.977,0,0,1-1.634.59l-.482.053a2.817,2.817,0,0,1-1.688-.562,3.678,3.678,0,0,1-1.2-1.527l-9.963-22.067a4.229,4.229,0,0,1-.375-1.714,2.678,2.678,0,0,1,.911-1.956,3.107,3.107,0,0,1,2.25-.883,3.475,3.475,0,0,1,1.875.535,3.311,3.311,0,0,1,1.285,1.5l7.392,16.925L815.7,60.893a3.531,3.531,0,0,1,1.179-1.554,2.533,2.533,0,0,1,1.661-.482A2.96,2.96,0,0,1,820.679,59.687Z" transform="translate(-749.86 -48.949)" fill="#D60812"/>
    <path id="Trazado_658" data-name="Trazado 658" d="M877.578,74.008a3.41,3.41,0,0,1-2.249.8H857.653a8.074,8.074,0,0,0,2.946,4.954,8.231,8.231,0,0,0,5.2,1.794,11.528,11.528,0,0,0,3.429-.4,8.888,8.888,0,0,0,1.955-.857c.483-.3.812-.509.991-.616a4.082,4.082,0,0,1,1.821-.482,2.63,2.63,0,0,1,1.929.8,2.572,2.572,0,0,1,.8,1.875,3.341,3.341,0,0,1-1.5,2.624,12.771,12.771,0,0,1-4.017,2.089,16.606,16.606,0,0,1-12.935-1.018,13.076,13.076,0,0,1-5.169-5.169,15.067,15.067,0,0,1-1.821-7.418,16.427,16.427,0,0,1,1.928-8.088,13.694,13.694,0,0,1,5.089-5.329,13.154,13.154,0,0,1,6.749-1.848,12.506,12.506,0,0,1,6.669,1.929,14.428,14.428,0,0,1,5.008,5.2,13.975,13.975,0,0,1,1.875,7.07A2.754,2.754,0,0,1,877.578,74.008Zm-19.872-4.553H871.74v-.376a5.539,5.539,0,0,0-2.2-3.856,6.952,6.952,0,0,0-4.5-1.607Q858.831,63.617,857.706,69.455Z" transform="translate(-778.377 -48.405)" fill="#D60812"/>
  </g>
</svg>
