<svg xmlns="http://www.w3.org/2000/svg" width="59.986" height="68.98" viewBox="0 0 59.986 68.98">
  <g id="Grupo_1595" data-name="Grupo 1595" transform="translate(-590.85 -545.543)">
    <g id="Grupo_91" data-name="Grupo 91">
      <path id="Trazado_200" data-name="Trazado 200" d="M647.5,565.64c-5.018-10.459-15.072-17.6-26.657-17.6h0c-11.586,0-21.641,7.139-26.658,17.6" fill="none" stroke="#434343" stroke-linecap="round" stroke-linejoin="round" stroke-width="5"/>
      <path id="Trazado_201" data-name="Trazado 201" d="M602.532,571.649a23.555,23.555,0,0,0-1.69,8.815v13.481" fill="none" stroke="#434343" stroke-linecap="round" stroke-linejoin="round" stroke-width="5"/>
      <path id="Trazado_202" data-name="Trazado 202" d="M638.774,570.427c-3.336-7.059-10.079-11.885-17.854-11.885h0a18.977,18.977,0,0,0-12.552,4.811" fill="none" stroke="#434343" stroke-linecap="round" stroke-linejoin="round" stroke-width="5"/>
      <path id="Trazado_203" data-name="Trazado 203" d="M641,594.61V580.464" fill="none" stroke="#434343" stroke-linecap="round" stroke-linejoin="round" stroke-width="5"/>
      <path id="Trazado_204" data-name="Trazado 204" d="M602.461,614.523" fill="none" stroke="#434343" stroke-linecap="round" stroke-linejoin="round" stroke-width="5"/>
      <path id="Trazado_205" data-name="Trazado 205" d="M630.212,586.267l-.125-8.124a9.737,9.737,0,0,0-9.737-9.737h0a9.737,9.737,0,0,0-9.736,9.737l.125,23.329" fill="none" stroke="#434343" stroke-linecap="round" stroke-linejoin="round" stroke-width="5"/>
      <line id="Línea_54" data-name="Línea 54" y2="26.506" transform="translate(620.413 578.811)" fill="none" stroke="#434343" stroke-linecap="round" stroke-linejoin="round" stroke-width="5"/>
    </g>
    <line id="Línea_55" data-name="Línea 55" y2="6.861" transform="translate(630.212 594.61)" fill="none" stroke="#434343" stroke-linecap="round" stroke-linejoin="round" stroke-width="5"/>
  </g>
</svg>
