<svg xmlns="http://www.w3.org/2000/svg" width="64.007" height="58.236" viewBox="0 0 64.007 58.236">
  <g id="Grupo_1598" data-name="Grupo 1598" transform="translate(-1425.886 -1480)">
    <g id="K6TL7S" transform="translate(439.9 130.186)">
      <g id="Grupo_684" data-name="Grupo 684" transform="translate(1001.127 1349.814)">
        <path id="Trazado_1095" data-name="Trazado 1095" d="M1022.343,1392.314a21.25,21.25,0,1,1,21.275-21.232A21.252,21.252,0,0,1,1022.343,1392.314Zm.01-37.2a15.944,15.944,0,1,0,15.966,15.925A15.989,15.989,0,0,0,1022.353,1355.109Z" transform="translate(-1001.127 -1349.814)" fill="#434343"/>
        <path id="Trazado_1096" data-name="Trazado 1096" d="M1052.672,1443.647h-4.359c-1.728,0-3.456.036-5.183-.015a2.617,2.617,0,0,1-2.408-3.7,2.489,2.489,0,0,1,2.04-1.553,4.232,4.232,0,0,1,.6-.037q7.741,0,15.482,0a2.592,2.592,0,0,1,2.831,2.378,2.441,2.441,0,0,1-.708,2.092c-1.892,1.915-3.785,3.83-5.7,5.718a2.645,2.645,0,0,1-3.681-3.8C1051.9,1444.417,1052.216,1444.105,1052.672,1443.647Z" transform="translate(-1029.86 -1414.433)" fill="#434343"/>
        <path id="Trazado_1097" data-name="Trazado 1097" d="M1049.935,1385.257c3.006,0,6.012.006,9.017,0a2.692,2.692,0,0,1,2.718,1.6,2.611,2.611,0,0,1-2.006,3.663,4.924,4.924,0,0,1-.739.042q-7.646,0-15.292,0c-1.689,0-2.768-.821-2.884-2.368a2.7,2.7,0,0,1,.531-1.855c1.762-1.915,3.6-3.759,5.487-5.557a2.575,2.575,0,0,1,3.491.214,2.629,2.629,0,0,1,.091,3.6,2.6,2.6,0,0,1-.637.379Z" transform="translate(-1030.044 -1371.99)" fill="#434343"/>
      </g>
    </g>
    <path id="Trazado_1098" data-name="Trazado 1098" d="M647.5,565.64c-5.018-10.459-15.072-17.6-26.657-17.6h0c-11.586,0-21.641,7.139-26.658,17.6" transform="matrix(-0.966, -0.259, 0.259, -0.966, 1913.348, 2218.113)" fill="none" stroke="#434343" stroke-linecap="round" stroke-linejoin="round" stroke-width="5"/>
  </g>
</svg>
