<svg xmlns="http://www.w3.org/2000/svg" width="60.426" height="67.764" viewBox="0 0 60.426 67.764">
  <g id="Grupo_1597" data-name="Grupo 1597" transform="translate(-2544.373 -3587.914)">
    <path id="Trazado_217" data-name="Trazado 217" d="M2556.295,3637.967l11.391-6.2a11.532,11.532,0,0,1,12.073.2h0a11.484,11.484,0,0,0,12.369,0l16.488-11.636" transform="translate(-7.303 14.32)" fill="none" stroke="#434343" stroke-linecap="round" stroke-linejoin="round" stroke-width="5"/>
    <path id="Trazado_218" data-name="Trazado 218" d="M2555.463,3630.279l11.389-6.2a11.528,11.528,0,0,1,12.074.2h0a11.485,11.485,0,0,0,12.37,0l16.488-11.636" transform="translate(-7.699 10.64)" fill="none" stroke="#434343" stroke-linecap="round" stroke-linejoin="round" stroke-width="5"/>
    <path id="Trazado_219" data-name="Trazado 219" d="M2560,3614.434h18.627a4.875,4.875,0,0,0,4.875-4.874h0a4.875,4.875,0,0,0-4.875-4.875h-13a4.875,4.875,0,0,1-4.875-4.876h0a4.874,4.874,0,0,1,4.875-4.875h15.741" transform="translate(2.172 2.163)" fill="none" stroke="#434343" stroke-linecap="round" stroke-linejoin="round" stroke-width="5"/>
    <line id="Línea_8" data-name="Línea 8" y1="6.683" transform="translate(2574.298 3590.414)" fill="none" stroke="#434343" stroke-linecap="round" stroke-linejoin="round" stroke-width="5"/>
    <line id="Línea_9" data-name="Línea 9" y1="6.683" transform="translate(2574.298 3616.597)" fill="none" stroke="#434343" stroke-linecap="round" stroke-linejoin="round" stroke-width="5"/>
  </g>
</svg>
